<svg xmlns="http://www.w3.org/2000/svg" viewBox="0 0 205 48"><defs><style>.cls-1{fill:#1a1a1a;}</style></defs><title>yarn-logo</title><g id="Layer_2" data-name="Layer 2"><g id="Layer_1-2" data-name="Layer 1"><g id="Design"><g id="Tablet-Landscape-1024"><g id="Group-4"><g id="Group"><g id="yarn-logo"><polygon id="Fill-1" class="cls-1" points="32.43 0 23.61 18.13 14.99 0 0 0 16.34 30.45 16.34 48 30.58 48 30.58 30.66 47 0 32.43 0"/><path id="Fill-2" class="cls-1" d="M64.17,0,48,48H62l2.18-6.86H81.05L83.23,48H98L81.9,0Zm8.44,13.34,5,16.38H67.55Z"/><path id="Fill-3" class="cls-1" d="M132.61,20.21a7.25,7.25,0,0,1-4.88,1.51H122.6V12h5.12c2.44,0,4.12.2,5,1.13a4.91,4.91,0,0,1,1.36,3.61,4.37,4.37,0,0,1-1.51,3.47m13.18,4.68a15.27,15.27,0,0,0,2.77-9,18.74,18.74,0,0,0-1.29-7.2,14.31,14.31,0,0,0-3.63-5.24A14.58,14.58,0,0,0,138.1.67a22.48,22.48,0,0,0-7-.67H108V48h14.6V32.54L134,48h18L138.07,31a16.81,16.81,0,0,0,7.72-6.15"/><polygon id="Fill-6" class="cls-1" points="191.86 0 191.86 25.52 176.5 0 161 0 161 48 174.14 48 174.14 22.71 189.44 48 205 48 205 0 191.86 0"/></g></g></g></g></g></g></g></svg>