<svg id="adidas-logo"
    xmlns="http://www.w3.org/2000/svg" xmlns:xlink="http://www.w3.org/1999/xlink"
    viewBox="0 0 85 80">
  <style>
    .logo {
      fill-rule: evenodd;
      clip-rule: evenodd;
      fill: #fff;
    }
  </style>
  <g>
    <path class="logo"
        d="M68.1,60.4c-2.9,0-4.5-1.5-4.7-3.5h2.7c0,0.6,0.4,1.6,2.1,1.6c1.2,0,1.7-0.7,1.7-1.2c-0.1-0.8-1.1-0.9-2.2-1.1 c-1.1-0.2-2-0.4-2.7-0.7c-0.9-0.4-1.4-1.4-1.4-2.5c0-1.8,1.6-3.3,4.2-3.3c2.6,0,4.2,1.4,4.4,3.4h-2.6c0-0.5-0.1-1.4-1.7-1.4 c-1,0-1.7,0.2-1.8,0.9c0,1.1,2.1,1,3.8,1.4c1.6,0.4,2.6,1.4,2.6,2.8C72.7,59.4,70.7,60.4,68.1,60.4L68.1,60.4z"/>
    <polygon class="logo" points="18.8,43.3 27.7,38.2 32.4,46.3 20.5,46.3 18.8,43.3"/>
    <polygon class="logo" points="38.8,60.1 36.3,60.1 36.3,49.8 38.8,49.8 38.8,60.1"/>
    <path class="logo"
        d="M14.7,55c0,1.6,1.4,2.9,3,2.9c1.6,0,3-1.3,3-2.9c0-1.6-1.4-3-3-3C16.1,52.1,14.7,53.4,14.7,55L14.7,55z M17.6,60.4c-2.9,0-5.3-2.4-5.3-5.3c0-3,2.4-5.3,5.3-5.3c1.1,0,2.2,0.3,3.1,0.9v-0.8h2.5v10.3h-2.5v-0.7 C19.8,60,18.8,60.4,17.6,60.4L17.6,60.4z"/>
    <polygon class="logo" points="51.9,46.3 39.5,24.8 48.4,19.6 63.9,46.3 51.9,46.3"/>
    <path class="logo"
      d="M26.5,55c0,1.6,1.4,2.9,3,2.9c1.6,0,3-1.3,3-2.9c0-1.6-1.4-3-3-3C27.9,52.1,26.5,53.4,26.5,55L26.5,55z M29.4,60.4c-3,0-5.4-2.4-5.4-5.3c0-3,2.4-5.3,5.4-5.3c1.1,0,2.1,0.3,3,0.9v-4.3H35v13.8h-2.5v-0.7C31.6,60,30.5,60.4,29.4,60.4 L29.4,60.4z"/>
    <polygon class="logo" points="29.2,34.2 38.2,29 48.2,46.3 38.8,46.3 38.8,48.9 36.3,48.9 36.3,46.3 29.2,34.2"/>
    <path class="logo"
        d="M54,55c0,1.6,1.4,2.9,3,2.9c1.6,0,2.9-1.3,2.9-2.9c0-1.6-1.3-3-2.9-3C55.4,52.1,54,53.4,54,55L54,55z M56.9,60.4c-2.9,0-5.3-2.4-5.3-5.3c0-3,2.4-5.3,5.3-5.3c1.1,0,2.2,0.3,3,0.9v-0.8h2.5v10.3h-2.5v-0.7C59.1,60,58.1,60.4,56.9,60.4 L56.9,60.4z"/>
    <path class="logo"
        d="M42.3,55c0,1.6,1.4,2.9,2.9,2.9c1.6,0,3-1.3,3-2.9c0-1.6-1.4-3-3-3C43.7,52.1,42.3,53.4,42.3,55L42.3,55z M48.2,46.3h2.5v13.8h-2.5v-0.7c-0.8,0.6-1.9,0.9-3.1,0.9c-2.9,0-5.3-2.4-5.3-5.3c0-3,2.4-5.3,5.3-5.3c1.2,0,2.2,0.3,3.1,0.9V46.3 L48.2,46.3z"/>
  </g>
</svg>
